<?xml version="1.0" encoding="UTF-8" standalone="no"?>
<svg width="20px" height="20px" viewBox="0 0 20 20" version="1.1" xmlns="http://www.w3.org/2000/svg" xmlns:xlink="http://www.w3.org/1999/xlink">
    <!-- Generator: sketchtool 3.8.3 (29802) - http://www.bohemiancoding.com/sketch -->
    <title>F8A4139B-3B4D-4269-9518-76534EA5D8ED</title>
    <desc>Created with sketchtool.</desc>
    <defs></defs>
    <g id="Page-1" stroke="none" stroke-width="1" fill="none" fill-rule="evenodd">
        <g id="Login_formError" transform="translate(-697.000000, -339.000000)" fill="#CB7F7F">
            <g id="ic_error_outline_black_24px" transform="translate(697.000000, 288.000000)">
                <g id="Group">
                    <path d="M9,64 L11,64 L11,66 L9,66 L9,64 Z M9,56 L11,56 L11,62 L9,62 L9,56 Z M9.99,51 C4.47,51 0,55.48 0,61 C0,66.52 4.47,71 9.99,71 C15.52,71 20,66.52 20,61 C20,55.48 15.52,51 9.99,51 L9.99,51 Z M10,69 C5.58,69 2,65.42 2,61 C2,56.58 5.58,53 10,53 C14.42,53 18,56.58 18,61 C18,65.42 14.42,69 10,69 L10,69 Z" id="alert"></path>
                </g>
            </g>
        </g>
    </g>
</svg>