<?xml version="1.0" encoding="UTF-8" standalone="no"?>
<svg width="86px" height="95px" viewBox="0 0 86 95" version="1.1" xmlns="http://www.w3.org/2000/svg" xmlns:xlink="http://www.w3.org/1999/xlink">
    <!-- Generator: sketchtool 3.8.3 (29802) - http://www.bohemiancoding.com/sketch -->
    <title>C554A28B-5AC7-4985-8813-7AEC9A94AF6C</title>
    <desc>Created with sketchtool.</desc>
    <defs></defs>
    <g id="Page-1" stroke="none" stroke-width="1" fill="none" fill-rule="evenodd">
        <g id="Startpage" transform="translate(-797.000000, -251.000000)" fill="#566394">
            <path d="M873,260.5 L868.25,260.5 L868.25,251 L858.75,251 L858.75,260.5 L820.75,260.5 L820.75,251 L811.25,251 L811.25,260.5 L806.5,260.5 C801.2275,260.5 797.0475,264.775 797.0475,270 L797,336.5 C797,341.725 801.2275,346 806.5,346 L873,346 C878.225,346 882.5,341.725 882.5,336.5 L882.5,270 C882.5,264.775 878.225,260.5 873,260.5 L873,260.5 Z M873,336.5 L806.5,336.5 L806.5,284.25 L873,284.25 L873,336.5 L873,336.5 Z M816,293.75 L839.75,293.75 L839.75,317.5 L816,317.5 L816,293.75 Z" id="calendar"></path>
        </g>
    </g>
</svg>