<?xml version="1.0" encoding="UTF-8" standalone="no"?>
<svg width="14px" height="18px" viewBox="0 0 14 18" version="1.1" xmlns="http://www.w3.org/2000/svg" xmlns:xlink="http://www.w3.org/1999/xlink">
    <!-- Generator: sketchtool 3.8.3 (29802) - http://www.bohemiancoding.com/sketch -->
    <title>031C62FF-2457-431F-80AE-6C9E75927B60</title>
    <desc>Created with sketchtool.</desc>
    <defs></defs>
    <g id="Page-1" stroke="none" stroke-width="1" fill="none" fill-rule="evenodd">
        <g id="TodoList" transform="translate(-792.000000, -697.000000)" fill="#566394">
            <g id="ic_delete_forever_black_24px" transform="translate(775.000000, 694.000000)">
                <g id="Group">
                    <path d="M18,19 C18,20.1 18.9,21 20,21 L28,21 C29.1,21 30,20.1 30,19 L30,7 L18,7 L18,19 L18,19 Z M20.46,11.88 L21.87,10.47 L24,12.59 L26.12,10.47 L27.53,11.88 L25.41,14 L27.53,16.12 L26.12,17.53 L24,15.41 L21.88,17.53 L20.47,16.12 L22.59,14 L20.46,11.88 L20.46,11.88 Z M27.5,4 L26.5,3 L21.5,3 L20.5,4 L17,4 L17,6 L31,6 L31,4 L27.5,4 Z" id="delete"></path>
                </g>
            </g>
        </g>
    </g>
</svg>