<?xml version="1.0" encoding="UTF-8" standalone="no"?>
<svg width="18px" height="18px" viewBox="0 0 18 18" version="1.1" xmlns="http://www.w3.org/2000/svg" xmlns:xlink="http://www.w3.org/1999/xlink">
    <!-- Generator: sketchtool 3.8.3 (29802) - http://www.bohemiancoding.com/sketch -->
    <title>D9DBC777-A9E0-4D00-84FE-C0898FF2A931</title>
    <desc>Created with sketchtool.</desc>
    <defs></defs>
    <g id="Page-1" stroke="none" stroke-width="1" fill="none" fill-rule="evenodd">
        <g id="Startpage" transform="translate(-913.000000, -44.000000)" fill="#FFFFFF">
            <path d="M920.09,56.59 L921.5,58 L926.5,53 L921.5,48 L920.09,49.41 L922.67,52 L913,52 L913,54 L922.67,54 L920.09,56.59 L920.09,56.59 Z M929,44 L915,44 C913.89,44 913,44.9 913,46 L913,50 L915,50 L915,46 L929,46 L929,60 L915,60 L915,56 L913,56 L913,60 C913,61.1 913.89,62 915,62 L929,62 C930.1,62 931,61.1 931,60 L931,46 C931,44.9 930.1,44 929,44 L929,44 Z" id="exit"></path>
        </g>
    </g>
</svg>