<?xml version="1.0" encoding="UTF-8" standalone="no"?>
<svg width="18px" height="20px" viewBox="0 0 18 20" version="1.1" xmlns="http://www.w3.org/2000/svg" xmlns:xlink="http://www.w3.org/1999/xlink">
    <!-- Generator: sketchtool 39.1 (31720) - http://www.bohemiancoding.com/sketch -->
    <title>78825A07-70FF-43EE-B00F-94601B511226</title>
    <desc>Created with sketchtool.</desc>
    <defs></defs>
    <g id="Page-1" stroke="none" stroke-width="1" fill="none" fill-rule="evenodd">
        <g id="Profile" transform="translate(-657.000000, -515.000000)" fill="#566394">
            <path d="M673,517 L672,517 L672,515 L670,515 L670,517 L662,517 L662,515 L660,515 L660,517 L659,517 C657.89,517 657.01,517.9 657.01,519 L657,533 C657,534.1 657.89,535 659,535 L673,535 C674.1,535 675,534.1 675,533 L675,519 C675,517.9 674.1,517 673,517 L673,517 Z M673,533 L659,533 L659,522 L673,522 L673,533 L673,533 Z M661,524 L666,524 L666,529 L661,529 L661,524 Z" id="little_Calendar"></path>
        </g>
    </g>
</svg>