<?xml version="1.0" encoding="UTF-8" standalone="no"?>
<svg width="110px" height="110px" viewBox="0 0 110 110" version="1.1" xmlns="http://www.w3.org/2000/svg" xmlns:xlink="http://www.w3.org/1999/xlink">
    <!-- Generator: sketchtool 39.1 (31720) - http://www.bohemiancoding.com/sketch -->
    <title>60101299-92CC-4B5F-A2C7-42DC9EFDC84F</title>
    <desc>Created with sketchtool.</desc>
    <defs></defs>
    <g id="Page-1" stroke="none" stroke-width="1" fill="none" fill-rule="evenodd">
        <g id="Startpage" transform="translate(-155.000000, -244.000000)" fill="#7C73A2">
            <g id="profile" transform="translate(155.000000, 244.000000)">
                <path d="M55,0.833333333 C25.1,0.833333333 0.833333333,25.1 0.833333333,55 C0.833333333,84.9 25.1,109.166667 55,109.166667 C84.9,109.166667 109.166667,84.9 109.166667,55 C109.166667,25.1 84.9,0.833333333 55,0.833333333 L55,0.833333333 Z M55,17.0833333 C63.9916667,17.0833333 71.25,24.3416667 71.25,33.3333333 C71.25,42.325 63.9916667,49.5833333 55,49.5833333 C46.0083333,49.5833333 38.75,42.325 38.75,33.3333333 C38.75,24.3416667 46.0083333,17.0833333 55,17.0833333 L55,17.0833333 Z M55,94 C41.4583333,94 29.4875,87.0666667 22.5,76.5583333 C22.6625,65.7791667 44.1666667,59.875 55,59.875 C65.7791667,59.875 87.3375,65.7791667 87.5,76.5583333 C80.5125,87.0666667 68.5416667,94 55,94 L55,94 Z"></path>
            </g>
        </g>
    </g>
</svg>