<?xml version="1.0" encoding="UTF-8" standalone="no"?>
<svg width="15px" height="15px" viewBox="0 0 15 15" version="1.1" xmlns="http://www.w3.org/2000/svg" xmlns:xlink="http://www.w3.org/1999/xlink">
    <!-- Generator: sketchtool 39.1 (31720) - http://www.bohemiancoding.com/sketch -->
    <title>23E227FE-88C4-4EF0-91C6-5BD101C8D914</title>
    <desc>Created with sketchtool.</desc>
    <defs></defs>
    <g id="Page-1" stroke="none" stroke-width="1" fill="none" fill-rule="evenodd">
        <g id="Profile" transform="translate(-723.000000, -821.000000)" fill="#5A6596">
            <g id="Group-2" transform="translate(218.000000, 809.000000)">
                <path d="M512.503034,12.6666667 C508.729359,12.6666667 505.666667,15.7287467 505.666667,19.5016667 C505.666667,23.2745867 508.729359,26.3366667 512.503034,26.3366667 C516.276708,26.3366667 519.339401,23.2745867 519.339401,19.5016667 C519.339401,15.7287467 516.276708,12.6666667 512.503034,12.6666667 L512.503034,12.6666667 Z M512.503034,24.9696667 C509.481359,24.9696667 507.03394,22.5227367 507.03394,19.5016667 C507.03394,18.2371917 507.464631,17.0752417 508.189286,16.1525167 L515.852854,23.8145517 C514.929944,24.5390617 513.767762,24.9696667 512.503034,24.9696667 L512.503034,24.9696667 Z M516.816781,22.8508167 L509.153214,15.1887817 C510.076123,14.4642717 511.238306,14.0336667 512.503034,14.0336667 C515.524708,14.0336667 517.972127,16.4805967 517.972127,19.5016667 C517.972127,20.7661417 517.541436,21.9280917 516.816781,22.8508167 L516.816781,22.8508167 Z" id="terminate"></path>
            </g>
        </g>
    </g>
</svg>